{"title":"HBO Real Sports League Of Legends 720p","uid":9091847,"size":238017270,"categoryP":"video","categoryS":"tv_shows","magnet":"?xt=urn:btih:1f6921c2744005bb4dd2a7a10ad5aeebae038ec1&amp;dn=HBO+Real+Sports+League+Of+Legends+720p&amp;tr=udp%3A%2F%2Ftracker.openbittorrent.com%3A80&amp;tr=udp%3A%2F%2Fopen.demonii.com%3A1337&amp;tr=udp%3A%2F%2Ftracker.coppersurfer.tk%3A6969&amp;tr=udp%3A%2F%2Fexodus.desync.com%3A6969","seeders":1,"leechers":0,"uploader":null,"files":1,"time":1382573268,"description":"Downloaded on youtube\n\n\nGeneral\nComplete name                            : F:HBO Real Sports League Of Legends.mp4\nFormat                                   : MPEG-4\nFormat profile                           : Base Media / Version 2\nCodec ID                                 : mp42\nFile size                                : 227 MiB\nDuration                                 : 14mn 47s\nOverall bit rate mode                    : Variable\nOverall bit rate                         : 2 147 Kbps\nEncoded date                             : UTC 2013-10-23 06:33:27\nTagged date                              : UTC 2013-10-23 06:33:27\ngsst                                     : 0\ngstd                                     : 887140\ngssd                                     : BADC209A4HH1382608089204957\ngshh                                     :\n\nVideo\nID                                       : 1\nFormat                                   : AVC\nFormat/Info                              : Advanced Video Codec\nFormat profile                           : &lt;a class=&quot;__cf_email__&quot; href=&quot;/cdn-cgi/l/email-protection&quot; data-cfemail=&quot;b9f1d0ded1f9f58a9788&quot;&gt;[email&amp;#160;protected]&lt;/a&gt;&lt;script cf-hash='f9e31' type=&quot;text/javascript&quot;&gt;\n/* &lt;![CDATA[ */!function(){try{var t=&quot;currentScript&quot;in document?document.currentScript:function(){for(var t=document.getElementsByTagName(&quot;script&quot;),e=t.length;e--;)if(t[e].getAttribute(&quot;cf-hash&quot;))return t[e]}();if(t&amp;&amp;t.previousSibling){var e,r,n,i,c=t.previousSibling,a=c.getAttribute(&quot;data-cfemail&quot;);if(a){for(e=&quot;&quot;,r=parseInt(a.substr(0,2),16),n=2;a.length-n;n+=2)i=parseInt(a.substr(n,2),16)^r,e+=String.fromCharCode(i);e=document.createTextNode(e),c.parentNode.replaceChild(e,c)}}}catch(u){}}();/* ]]&gt; */&lt;/script&gt;\nFormat settings, CABAC                   : Yes\nFormat settings, ReFrames                : 1 frame\nCodec ID                                 : avc1\nCodec ID/Info                            : Advanced Video Coding\nDuration                                 : 14mn 47s\nBit rate                                 : 1 952 Kbps\nMaximum bit rate                         : 7 421 Kbps\nWidth                                    : 1 280 pixels\nHeight                                   : 720 pixels\nDisplay aspect ratio                     : 16:9\nFrame rate mode                          : Constant\nFrame rate                               : 30.000 fps\nColor space                              : YUV\nChroma subsampling                       : 4:2:0\nBit depth                                : 8 bits\nScan type                                : Progressive\nBits/(Pixel*Frame)                       : 0.071\nStream size                              : 206 MiB (91%)\nTagged date                              : UTC 2013-10-23 06:34:32\n\nAudio\nID                                       : 2\nFormat                                   : AAC\nFormat/Info                              : Advanced Audio Codec\nFormat profile                           : LC\nCodec ID                                 : 40\nDuration                                 : 14mn 47s\nBit rate mode                            : Variable\nBit rate                                 : 192 Kbps\nMaximum bit rate                         : 202 Kbps\nChannel(s)                               : 2 channels\nChannel positions                        : Front: L R\nSampling rate                            : 44.1 KHz\nCompression mode                         : Lossy\nStream size                              : 20.3 MiB (9%)\nTitle                                    : IsoMedia File Produced by Google, 5-11-2011\nEncoded date                             : UTC 2013-10-23 06:34:06\nTagged date                              : UTC 2013-10-23 06:34:32","torrent":{"xt":"urn:btih:1f6921c2744005bb4dd2a7a10ad5aeebae038ec1","amp;dn":"HBO+Real+Sports+League+Of+Legends+720p","amp;tr":["udp%3A%2F%2Ftracker.openbittorrent.com%3A80","udp%3A%2F%2Fopen.demonii.com%3A1337","udp%3A%2F%2Ftracker.coppersurfer.tk%3A6969","udp%3A%2F%2Fexodus.desync.com%3A6969"],"infoHash":"1f6921c2744005bb4dd2a7a10ad5aeebae038ec1","infoHashBuffer":{"type":"Buffer","data":[31,105,33,194,116,64,5,187,77,210,167,161,10,213,174,235,174,3,142,193]},"announce":[],"urlList":[]}}